<svg t="1724382053985" class="icon" viewBox="0 0 1024 1024" version="1.1" xmlns="http://www.w3.org/2000/svg" p-id="1232" width="200" height="200"><path d="M512 512m-470.460777 0a470.460777 470.460777 0 1 0 940.921554 0 470.460777 470.460777 0 1 0-940.921554 0Z" fill="#77BED9" p-id="1233"></path><path d="M512 1013.615194C235.411084 1013.615194 10.384806 788.59307 10.384806 512 10.384806 235.411084 235.411084 10.384806 512 10.384806c276.59307 0 501.615194 225.022125 501.615194 501.615194 0 276.59307-225.022125 501.615194-501.615194 501.615194z m0-940.921554C269.768175 72.69364 72.69364 269.768175 72.69364 512s197.070381 439.30636 439.30636 439.30636 439.30636-197.070381 439.30636-439.30636S754.235978 72.69364 512 72.69364z" fill="#77BED9" p-id="1234"></path><path d="M209.73569 151.51847c149.416585 22.925497 95.585906 150.558913 137.714986 299.792725 27.336963 96.811313 68.610335 82.667208 105.580243 154.467755 56.464266 74.662599-216.003959 324.005939-362.093252 115.703351-144.805731-357.5364 118.798024-569.963832 118.798023-569.963831z" fill="#57E690" p-id="1235"></path><path d="M234.933383 833.858361c-47.093017 0-114.731334-16.391377-169.500799-94.48927a31.162725 31.162725 0 0 1-3.368831-6.193499c-79.115604-195.338196-40.41351-349.49856 5.981648-444.428146 50.266614-102.842808 119.234185-159.136763 122.141931-161.483729a31.183495 31.183495 0 0 1 24.271368-6.534119c127.73311 19.594051 135.854029 110.801723 143.704942 199.001955 3.348061 37.568073 7.136438 80.149931 19.270045 123.118103 13.433785 47.579026 29.168842 62.038829 49.0869 80.341011 16.59492 15.249049 35.36234 32.496134 53.136974 66.263368 10.376498 15.157662 21.841323 45.65576-1.678185 92.93155-36.238818 72.847335-139.467941 151.472776-243.045993 151.472776z m-116.467673-127.434028c31.295651 43.213254 70.467138 65.125194 116.467673 65.125194 83.124139 0 163.48592-69.133729 187.262971-116.916297 8.361846-16.810924 8.162457-27.191575 5.989956-30.061936a31.4535 31.4535 0 0 1-2.849591-4.531929c-13.018392-25.280771-25.974476-37.185912-40.974289-50.972781-22.805033-20.956538-48.654892-44.71282-66.890611-109.289695-13.712097-48.571813-17.778787-94.235881-21.367776-134.52062-7.738757-86.93744-13.845023-125.996771-76.997104-140.298725-19.46528 18.505724-62.973462 64.489644-96.22561 133.507062-57.768597 119.911275-59.251548 250.415051-4.415619 387.959727z" fill="#77BED9" p-id="1236"></path><path d="M552.014733 43.250639s-73.703043 251.225066 88.258387 251.225066c164.578401 0 195.433736 148.984577 298.359623 19.049888-109.759089-264.405462-386.61801-270.274954-386.61801-270.274954z" fill="#3CF098" p-id="1237"></path><path d="M859.060208 397.870985h-0.02077c-30.331941-0.008308-56.505805-14.696577-84.212467-30.244708-35.079874-19.685438-74.845372-42.000308-134.553851-42.000308-56.588883 0-87.980074-26.057555-104.346528-47.919648-59.471705-79.431302-18.655265-226.700309-13.803483-243.228766 3.962842-13.504401 16.607381-22.630569 30.552098-22.377179 3.065595 0.066463 76.099856 2.010498 163.460996 38.36978 116.280747 48.397349 203.168339 135.226786 251.27076 251.104602a31.146109 31.146109 0 0 1-4.353311 31.287343c-35.125567 44.351428-68.178327 65.008884-103.993444 65.008884z m-283.235192-321.210349c-9.94449 46.835474-18.71342 125.456761 10.010953 163.747617 7.373212 9.836488 21.047924 22.913035 54.432997 22.913035 75.996008 0 127.467259 28.882222 165.043641 49.971685 21.293006 11.946681 39.686574 22.269177 53.735139 22.273332h0.091386c4.89332 0 18.26895-0.170311 43.134329-27.307886-85.558337-183.466286-261.780183-223.13209-326.448445-231.597783z" fill="#77BED9" p-id="1238"></path><path d="M752.827799 916.197409s-106.012251-169.500799 0-240.117478c106.024713-70.616679 229.632978-66.462757 229.632978-164.079931 0 267.927988-229.632978 404.197409-229.632978 404.197409z" fill="#F0F0F0" p-id="1239"></path><path d="M752.856876 947.35598a31.133648 31.133648 0 0 1-26.439715-14.634268c-1.188022-1.898342-29.214535-47.080555-43.504028-102.294491-20.674071-79.871618-1.977267-143.891868 52.642657-180.271919 40.052119-26.672335 81.512417-43.047097 118.100165-57.498593 70.874222-27.989128 97.654559-42.191389 97.654559-80.652555 0-17.205546 13.944717-31.154417 31.154417-31.154417s31.154417 13.948871 31.154417 31.154417c0 117.040915-42.266159 228.644345-122.233317 322.743146-60.086486 70.708065-120.131433 106.743341-122.657018 108.247061a31.096262 31.096262 0 0 1-15.872137 4.361619z m183.23782-322.57699c-18.750805 9.71187-39.254566 17.812019-59.554783 25.829089-35.349879 13.957179-71.900241 28.392059-106.444259 51.400635-32.172128 21.430085-40.961828 58.329377-26.863416 112.803913 5.479024 21.176696 13.49194 40.754132 20.56607 55.753945 20.927461-15.996755 51.371557-42.062617 81.491647-77.811272 43.778187-51.95726 74.122589-108.155675 90.804741-167.97631z" fill="#77BED9" p-id="1240"></path></svg>
