<svg t="1715931971405" class="icon" viewBox="0 0 1108 1024" version="1.1" xmlns="http://www.w3.org/2000/svg" p-id="1189"
  width="200" height="200">
  <path
    d="M335.929011 909.605824c-78.503743-9.700591-157.016257-24.931221-235.533157-45.687503 6.915837-141.276916 100.259906-316.720788 203.304566-503.46155 42.297559 74.710338 91.91003 152.999195 141.697918 232.160754"
    fill="#428696" p-id="1190"></path>
  <path
    d="M342.445773 942.737816c-76.188231-10.507512-152.372077-27.005533-228.555923-49.489679-9.757602-2.89439-21.422869-10.853961-30.87349-20.804522-9.44185-9.963717-15.18239-20.52824-14.809628-28.233457 6.486064-137.544908 100.935263-310.760976 206.576103-496.778141 6.288719-11.046921 17.769799-18.752137 29.891152-19.975674 12.138895-1.236694 23.049867 4.275803 28.702698 14.379854C375.481285 417.142955 424.78239 495.743178 474.153662 574.917893c10.020728 16.072634 5.266912 37.11397-10.454887 46.849644-15.717413 9.748831-36.618415 4.451221-46.867186-11.612642-39.096188-61.475084-78.016959-122.248497-113.411837-181.052848-80.100043 150.859101-149.732043 293.719161-167.453602 416.222013a2002.698415 2002.698415 0 0 0 193.96358 31.154158c16.669054 1.806801 32.3163 18.002227 35.237002 36.491238 2.907546 18.475854-7.139495 31.965465-22.720959 29.76836z"
    fill="#428696" p-id="1191"></path>
  <path
    d="M335.929011 909.605824c53.918972-252.232908 228.354193-539.821225 311.681918-804.679811 140.781362 278.93146 342.033542 555.735983 360.583949 752.61588-224.043306 62.404797-448.130467 79.757979-672.265867 52.063931z"
    fill="#58B3C9" p-id="1192"></path>
  <path
    d="M995.038561 886.314758l-0.074552 0.021927c-217.509002 67.610313-435.013619 86.41069-652.522621 56.401131-9.590955-1.324403-19.769559-8.319178-27.154639-18.423229-7.376308-10.117208-10.853961-21.940351-8.876128-31.548848C357.334338 644.045567 532.484385 356.974732 620.14054 89.642758c3.885499-11.766133 13.125619-19.081045 23.992736-18.68197 10.827649 0.39469 21.664069 8.380574 27.948403 20.365979 145.697439 279.216514 348.752034 553.082792 367.977799 744.410723 0.789379 3.517122 0.004385 8.051666-2.565482 13.393131-7.542955 15.43236-26.882741 32.241747-42.455435 37.184137z m-618.895075-5.29761c198.414801 17.116368 396.759435 3.560976 595.042672-40.670561-34.561645-182.079041-191.85857-417.594655-316.176993-656.763341-80.222835 229.196197-218.320308 474.070338-278.865679 697.433902z"
    fill="#58B3C9" p-id="1193"></path>
  <path
    d="M647.610929 104.926013c-30.825251 97.913696-74.070064 198.932283-119.077824 300.126287 46.020797 46.661071 93.401079 93.778227 139.76394 139.886732 50.406236-46.547049 100.571272-92.269636 147.960325-135.470595-56.29588-98.60221-116.626364-201.427597-168.646441-304.542424z"
    fill="#E6E6E6" p-id="1194"></path>
  <path
    d="M667.968137 578.83409a33.324951 33.324951 0 0 1-23.992737-9.757602c-46.169901-46.161131-93.493173-93.251974-139.597293-139.799023-9.876009-9.963717-12.472188-25.049627-6.635169-37.999829 45.617336-101.286099 89.971666-202.813396 122.393216-301.639263 3.885499-11.766133 13.121233-19.081045 23.992737-18.686356 10.827649 0.39469 21.664069 8.380574 27.948402 20.361593 53.980368 103.487589 115.880839 206.238424 173.369559 304.327538 7.753456 13.204557 5.753696 28.764094-4.981858 38.398903-47.963546 43.135178-98.532043 88.866535-149.170707 135.496908a34.820385 34.820385 0 0 1-23.32615 9.297131z m-99.071452-181.32036a13357.45946 13357.45946 0 0 0 100.330073 100.321302c35.697473-32.982887 70.982715-65.448291 104.926013-96.773482-39.828557-71.197602-81.038527-144.171306-119.139221-217.487075-24.580385 70.197722-54.581173 141.864565-86.116865 213.939255z"
    fill="#E6E6E6" p-id="1195"></path>
</svg>