<svg width="20" height="20" viewBox="0 0 20 20" fill="none" xmlns="http://www.w3.org/2000/svg">
<path d="M9.16666 1.66653C8.06159 1.66653 7.00178 2.10551 6.22038 2.88692C5.43898 3.66832 4.99999 4.72812 4.99999 5.83319C4.99999 6.93826 5.43898 7.99807 6.22038 8.77947C7.00178 9.56087 8.06159 9.99986 9.16666 9.99986C10.2717 9.99986 11.3315 9.56087 12.1129 8.77947C12.8943 7.99807 13.3333 6.93826 13.3333 5.83319C13.3333 4.72812 12.8943 3.66832 12.1129 2.88692C11.3315 2.10551 10.2717 1.66653 9.16666 1.66653ZM9.16666 10.8332C7.17082 10.8332 5.35416 11.4115 4.01832 12.2257C3.35166 12.634 2.78166 13.1132 2.36999 13.634C1.96499 14.1474 1.66666 14.7607 1.66666 15.4165C1.66666 16.1207 2.00916 16.6757 2.50249 17.0715C2.96916 17.4465 3.58499 17.6949 4.23916 17.8682C5.55416 18.2157 7.30916 18.3332 9.16666 18.3332L9.73749 18.329C9.87706 18.3271 10.0139 18.2902 10.1355 18.2216C10.257 18.153 10.3594 18.055 10.4333 17.9365C10.5071 17.8181 10.55 17.683 10.558 17.5436C10.566 17.4043 10.5389 17.2652 10.4792 17.139C10.1624 16.4704 9.99876 15.7397 9.99999 14.9999C9.99999 13.9565 10.3192 12.9899 10.8642 12.189C10.9452 12.07 10.994 11.9321 11.0058 11.7886C11.0176 11.6451 10.9921 11.501 10.9317 11.3703C10.8712 11.2397 10.778 11.1269 10.661 11.043C10.544 10.9591 10.4073 10.9069 10.2642 10.8915C9.90582 10.8532 9.53916 10.8332 9.16666 10.8332ZM17.18 12.8907C17.2356 12.7959 17.2719 12.691 17.2867 12.5821C17.3016 12.4732 17.2948 12.3625 17.2667 12.2562C17.2386 12.15 17.1898 12.0503 17.1231 11.963C17.0563 11.8757 16.9729 11.8025 16.8778 11.7476C16.7826 11.6926 16.6775 11.657 16.5685 11.6429C16.4595 11.6287 16.3488 11.6362 16.2427 11.665C16.1367 11.6938 16.0374 11.7433 15.9505 11.8106C15.8637 11.878 15.791 11.9618 15.7367 12.0574L15.4567 12.5424C15.1546 12.4858 14.8447 12.4855 14.5425 12.5415L14.2633 12.0574C14.209 11.9618 14.1363 11.878 14.0495 11.8106C13.9626 11.7433 13.8633 11.6938 13.7572 11.665C13.6512 11.6362 13.5405 11.6287 13.4315 11.6429C13.3225 11.657 13.2174 11.6926 13.1222 11.7476C13.027 11.8025 12.9437 11.8757 12.8769 11.963C12.8102 12.0503 12.7613 12.15 12.7332 12.2562C12.7052 12.3625 12.6984 12.4732 12.7132 12.5821C12.7281 12.691 12.7644 12.7959 12.82 12.8907L13.0992 13.374C12.8997 13.6079 12.7452 13.8766 12.6433 14.1665H12.0833C11.8623 14.1665 11.6503 14.2543 11.4941 14.4106C11.3378 14.5669 11.25 14.7788 11.25 14.9999C11.25 15.2209 11.3378 15.4328 11.4941 15.5891C11.6503 15.7454 11.8623 15.8332 12.0833 15.8332H12.6425C12.7454 16.1228 12.9004 16.3911 13.1 16.6249L12.82 17.109C12.7644 17.2038 12.7281 17.3087 12.7132 17.4176C12.6984 17.5265 12.7052 17.6372 12.7332 17.7435C12.7613 17.8497 12.8102 17.9494 12.8769 18.0367C12.9437 18.124 13.027 18.1972 13.1222 18.2522C13.2174 18.3071 13.3225 18.3427 13.4315 18.3569C13.5405 18.371 13.6512 18.3635 13.7572 18.3347C13.8633 18.3059 13.9626 18.2564 14.0495 18.1891C14.1363 18.1217 14.209 18.0379 14.2633 17.9424L14.5433 17.4582C14.8425 17.5132 15.1517 17.5149 15.4575 17.4582L15.7367 17.9424C15.791 18.0379 15.8637 18.1217 15.9505 18.1891C16.0374 18.2564 16.1367 18.3059 16.2427 18.3347C16.3488 18.3635 16.4595 18.371 16.5685 18.3569C16.6775 18.3427 16.7826 18.3071 16.8778 18.2522C16.9729 18.1972 17.0563 18.124 17.1231 18.0367C17.1898 17.9494 17.2386 17.8497 17.2667 17.7435C17.2948 17.6372 17.3016 17.5265 17.2867 17.4176C17.2719 17.3087 17.2356 17.2038 17.18 17.109L16.9008 16.6257C17.1025 16.389 17.2558 16.1199 17.3567 15.8332H17.9167C18.1377 15.8332 18.3496 15.7454 18.5059 15.5891C18.6622 15.4328 18.75 15.2209 18.75 14.9999C18.75 14.7788 18.6622 14.5669 18.5059 14.4106C18.3496 14.2543 18.1377 14.1665 17.9167 14.1665H17.3575C17.2545 13.877 17.0994 13.6087 16.9 13.3749L17.18 12.8907Z" fill="white"/>
</svg>
