<svg width="20" height="20" viewBox="0 0 20 20" fill="none" xmlns="http://www.w3.org/2000/svg">
<path fill-rule="evenodd" clip-rule="evenodd" d="M3.33334 4.16667C3.33334 3.50363 3.59673 2.86774 4.06557 2.3989C4.53441 1.93006 5.17029 1.66667 5.83334 1.66667H15C15.442 1.66667 15.866 1.84226 16.1785 2.15482C16.4911 2.46738 16.6667 2.89131 16.6667 3.33333V14.1583C16.6667 14.2983 16.635 14.4267 16.5725 14.5517L16.1183 15.46C16.0604 15.5758 16.0302 15.7035 16.0302 15.8329C16.0302 15.9624 16.0604 16.0901 16.1183 16.2058L16.5708 17.1125C16.6375 17.2395 16.6703 17.3815 16.666 17.5249C16.6618 17.6683 16.6205 17.8081 16.5464 17.9309C16.4722 18.0537 16.3676 18.1552 16.2427 18.2257C16.1178 18.2962 15.9768 18.3333 15.8333 18.3333H5.83334C5.17029 18.3333 4.53441 18.0699 4.06557 17.6011C3.59673 17.1323 3.33334 16.4964 3.33334 15.8333V4.16667ZM5.83334 15H14.5067C14.316 15.5392 14.316 16.1275 14.5067 16.6667H5.83334C5.61232 16.6667 5.40036 16.5789 5.24408 16.4226C5.0878 16.2663 5 16.0543 5 15.8333C5 15.6123 5.0878 15.4004 5.24408 15.2441C5.40036 15.0878 5.61232 15 5.83334 15ZM8.33334 5.83333C8.11232 5.83333 7.90036 5.92113 7.74408 6.07741C7.5878 6.23369 7.5 6.44565 7.5 6.66667C7.5 6.88768 7.5878 7.09964 7.74408 7.25592C7.90036 7.4122 8.11232 7.5 8.33334 7.5H11.6667C11.8877 7.5 12.0996 7.4122 12.2559 7.25592C12.4122 7.09964 12.5 6.88768 12.5 6.66667C12.5 6.44565 12.4122 6.23369 12.2559 6.07741C12.0996 5.92113 11.8877 5.83333 11.6667 5.83333H8.33334Z" fill="white"/>
</svg>
