<svg width="20" height="20" viewBox="0 0 20 20" fill="none" xmlns="http://www.w3.org/2000/svg">
<path fill-rule="evenodd" clip-rule="evenodd" d="M7.50008 1.66797C7.05805 1.66797 6.63413 1.84356 6.32157 2.15612C6.00901 2.46868 5.83342 2.89261 5.83342 3.33464V5.0013H7.50008V3.33464H16.6667V12.5013H15.0001V14.168H16.6667C17.1088 14.168 17.5327 13.9924 17.8453 13.6798C18.1578 13.3673 18.3334 12.9433 18.3334 12.5013V3.33464C18.3334 2.89261 18.1578 2.46868 17.8453 2.15612C17.5327 1.84356 17.1088 1.66797 16.6667 1.66797H7.50008ZM3.33341 5.83464C2.89139 5.83464 2.46746 6.01023 2.1549 6.32279C1.84234 6.63535 1.66675 7.05927 1.66675 7.5013V16.668C1.66675 17.11 1.84234 17.5339 2.1549 17.8465C2.46746 18.159 2.89139 18.3346 3.33341 18.3346H12.5001C12.9421 18.3346 13.366 18.159 13.6786 17.8465C13.9912 17.5339 14.1667 17.11 14.1667 16.668V7.5013C14.1667 7.05927 13.9912 6.63535 13.6786 6.32279C13.366 6.01023 12.9421 5.83464 12.5001 5.83464H3.33341Z" fill="white"/>
</svg>
