<svg width="20" height="20" viewBox="0 0 20 20" fill="none" xmlns="http://www.w3.org/2000/svg">
<path d="M2.5 4.16667C2.5 3.72464 2.67559 3.30072 2.98816 2.98816C3.30072 2.67559 3.72464 2.5 4.16667 2.5H15.8333C16.2754 2.5 16.6993 2.67559 17.0118 2.98816C17.3244 3.30072 17.5 3.72464 17.5 4.16667V13.3333C17.5 13.7754 17.3244 14.1993 17.0118 14.5118C16.6993 14.8244 16.2754 15 15.8333 15H12.5V15.8333H13.3333C13.5543 15.8333 13.7663 15.9211 13.9226 16.0774C14.0789 16.2337 14.1667 16.4457 14.1667 16.6667C14.1667 16.8877 14.0789 17.0996 13.9226 17.2559C13.7663 17.4122 13.5543 17.5 13.3333 17.5H6.66667C6.44565 17.5 6.23369 17.4122 6.07741 17.2559C5.92113 17.0996 5.83333 16.8877 5.83333 16.6667C5.83333 16.4457 5.92113 16.2337 6.07741 16.0774C6.23369 15.9211 6.44565 15.8333 6.66667 15.8333H7.5V15H4.16667C3.72464 15 3.30072 14.8244 2.98816 14.5118C2.67559 14.1993 2.5 13.7754 2.5 13.3333V4.16667ZM10.8333 15.8333V15H9.16667V15.8333H10.8333Z" fill="white"/>
</svg>
