<svg width="20" height="20" viewBox="0 0 20 20" fill="none" xmlns="http://www.w3.org/2000/svg">
<path d="M9.99999 2.08333C10.3315 2.08333 10.6495 2.21503 10.8839 2.44945C11.1183 2.68387 11.25 3.00181 11.25 3.33333C11.25 3.66485 11.1183 3.9828 10.8839 4.21722C10.6495 4.45164 10.3315 4.58333 9.99999 4.58333H5.83332C5.72282 4.58333 5.61684 4.62723 5.5387 4.70537C5.46056 4.78351 5.41666 4.88949 5.41666 5V15C5.41666 15.1105 5.46056 15.2165 5.5387 15.2946C5.61684 15.3728 5.72282 15.4167 5.83332 15.4167H9.58332C9.91484 15.4167 10.2328 15.5484 10.4672 15.7828C10.7016 16.0172 10.8333 16.3351 10.8333 16.6667C10.8333 16.9982 10.7016 17.3161 10.4672 17.5505C10.2328 17.785 9.91484 17.9167 9.58332 17.9167H5.83332C5.05978 17.9167 4.31791 17.6094 3.77093 17.0624C3.22395 16.5154 2.91666 15.7735 2.91666 15V5C2.91666 4.22645 3.22395 3.48458 3.77093 2.9376C4.31791 2.39062 5.05978 2.08333 5.83332 2.08333H9.99999ZM15.05 6.75833L17.4075 9.11666C17.6416 9.35104 17.7731 9.66875 17.7731 10C17.7731 10.3312 17.6416 10.649 17.4075 10.8833L15.0508 13.2417C14.8163 13.4762 14.4983 13.6079 14.1667 13.6079C13.835 13.6079 13.517 13.4762 13.2825 13.2417C13.048 13.0072 12.9163 12.6891 12.9163 12.3575C12.9163 12.0259 13.048 11.7078 13.2825 11.4733L13.5058 11.25H9.99999C9.66847 11.25 9.35053 11.1183 9.11611 10.8839C8.88169 10.6495 8.74999 10.3315 8.74999 10C8.74999 9.66848 8.88169 9.35054 9.11611 9.11611C9.35053 8.88169 9.66847 8.75 9.99999 8.75H13.5058L13.2825 8.52667C13.1664 8.41056 13.0744 8.27272 13.0116 8.12104C12.9488 7.96935 12.9165 7.80679 12.9166 7.64262C12.9166 7.47845 12.949 7.3159 13.0118 7.16425C13.0747 7.01259 13.1668 6.8748 13.2829 6.75875C13.399 6.64269 13.5368 6.55064 13.6885 6.48786C13.8402 6.42507 14.0028 6.39277 14.167 6.39281C14.3311 6.39285 14.4937 6.42522 14.6453 6.48808C14.797 6.55094 14.9348 6.64305 15.0508 6.75917L15.05 6.75833Z" fill="white"/>
</svg>
