<svg width="20" height="20" viewBox="0 0 20 20" fill="none" xmlns="http://www.w3.org/2000/svg">
<rect x="1.66666" y="3.33333" width="16.6667" height="13.3333" fill="white"/>
<path d="M8.45 14.7727C8.35604 14.7733 8.26301 14.7542 8.17689 14.7166C8.09077 14.679 8.01348 14.6238 7.95 14.5545C7.18883 13.744 6.25267 13.118 5.21289 12.7242C4.1731 12.3303 3.05712 12.179 1.95 12.2818L1.82272 10.9182C2.98191 10.8075 4.15152 10.9312 5.26195 11.2818C6.37237 11.6324 7.40091 12.2028 8.28636 12.9591C9.15678 11.6275 10.3462 10.5345 11.7466 9.77957C13.1469 9.02464 14.7137 8.63166 16.3045 8.63636C16.9011 8.63398 17.4963 8.69031 18.0818 8.80454L17.8182 10.1409C17.3194 10.0446 16.8125 9.99743 16.3045 10C14.8089 9.99272 13.3403 10.3995 12.0615 11.1753C10.7828 11.951 9.74359 13.0656 9.05909 14.3955C9.00986 14.494 8.93735 14.579 8.84785 14.6431C8.75834 14.7073 8.65455 14.7486 8.54545 14.7636C8.51422 14.7711 8.48209 14.7742 8.45 14.7727ZM6.36363 9.54545C5.91413 9.54545 5.47472 9.41216 5.10097 9.16243C4.72723 8.9127 4.43592 8.55775 4.26391 8.14246C4.09189 7.72718 4.04688 7.27021 4.13458 6.82934C4.22227 6.38847 4.43873 5.98351 4.75657 5.66567C5.07442 5.34782 5.47938 5.13136 5.92025 5.04367C6.36111 4.95598 6.81808 5.00098 7.23337 5.173C7.64865 5.34502 8.00361 5.63632 8.25334 6.01007C8.50307 6.38382 8.63636 6.82322 8.63636 7.27273C8.63636 7.57119 8.57757 7.86672 8.46336 8.14246C8.34914 8.4182 8.18174 8.66874 7.97069 8.87979C7.75965 9.09083 7.50911 9.25824 7.23337 9.37245C6.95763 9.48667 6.66209 9.54545 6.36363 9.54545ZM6.36363 6.36364C6.18383 6.36364 6.00807 6.41695 5.85857 6.51685C5.70907 6.61674 5.59255 6.75872 5.52374 6.92483C5.45494 7.09095 5.43693 7.27374 5.47201 7.45008C5.50709 7.62643 5.59367 7.78841 5.72081 7.91555C5.84795 8.04269 6.00993 8.12927 6.18628 8.16435C6.36262 8.19943 6.54541 8.18142 6.71153 8.11262C6.87764 8.04381 7.01962 7.92729 7.11951 7.77779C7.21941 7.62829 7.27272 7.45253 7.27272 7.27273C7.27272 7.03162 7.17694 6.80039 7.00646 6.6299C6.83597 6.45941 6.60474 6.36364 6.36363 6.36364Z" fill="#282C34"/>
<path d="M16.5818 17.7273H3.4C2.71837 17.7059 2.0731 17.4148 1.60603 16.9179C1.13895 16.421 0.888273 15.7589 0.909091 15.0773V4.92273C0.894448 4.24189 1.15034 3.58303 1.62066 3.09054C2.09099 2.59806 2.73739 2.31214 3.41818 2.29545H16.6C17.2776 2.31685 17.9194 2.60484 18.3858 3.0968C18.8522 3.58877 19.1056 4.24496 19.0909 4.92273V15.0773C19.1012 15.4163 19.0443 15.754 18.9236 16.0709C18.8029 16.3879 18.6207 16.6779 18.3875 16.9241C18.1544 17.1704 17.8748 17.3682 17.5649 17.506C17.255 17.6438 16.9209 17.719 16.5818 17.7273ZM3.4 3.68182C3.08814 3.70284 2.79654 3.84382 2.58637 4.07517C2.3762 4.30653 2.26379 4.61029 2.27273 4.92273V15.0773C2.26228 15.2372 2.28373 15.3976 2.33584 15.5492C2.38795 15.7008 2.46968 15.8405 2.57627 15.9602C2.68285 16.0799 2.81217 16.1772 2.95671 16.2464C3.10124 16.3157 3.25811 16.3555 3.41818 16.3636H16.6C16.7585 16.3532 16.9134 16.3117 17.0558 16.2414C17.1983 16.1711 17.3255 16.0735 17.4302 15.954C17.5348 15.8346 17.615 15.6956 17.6659 15.5452C17.7169 15.3948 17.7378 15.2358 17.7273 15.0773V4.92273C17.7421 4.60347 17.63 4.29133 17.4153 4.05453C17.2007 3.81774 16.901 3.67557 16.5818 3.65909L3.4 3.68182Z" fill="white"/>
</svg>
