<svg width="20" height="20" viewBox="0 0 20 20" fill="none" xmlns="http://www.w3.org/2000/svg">
<path d="M11 2.20833C10.7115 1.99196 10.3606 1.875 10 1.875C9.63938 1.875 9.28849 1.99196 9 2.20833L3.16667 6.58333C2.95967 6.73858 2.79167 6.93988 2.67595 7.17131C2.56024 7.40274 2.5 7.65792 2.5 7.91667V15.8333C2.5 16.2754 2.67559 16.6993 2.98816 17.0118C3.30072 17.3244 3.72464 17.5 4.16667 17.5H7.41667C7.65978 17.5 7.89294 17.4034 8.06485 17.2315C8.23676 17.0596 8.33333 16.8264 8.33333 16.5833V12.5C8.33333 12.058 8.50893 11.634 8.82149 11.3215C9.13405 11.0089 9.55797 10.8333 10 10.8333C10.442 10.8333 10.866 11.0089 11.1785 11.3215C11.4911 11.634 11.6667 12.058 11.6667 12.5V16.5833C11.6667 16.8264 11.7632 17.0596 11.9352 17.2315C12.1071 17.4034 12.3402 17.5 12.5833 17.5H15.8333C16.2754 17.5 16.6993 17.3244 17.0118 17.0118C17.3244 16.6993 17.5 16.2754 17.5 15.8333V7.91667C17.5 7.65792 17.4398 7.40274 17.324 7.17131C17.2083 6.93988 17.0403 6.73858 16.8333 6.58333L11 2.20833Z" fill="white"/>
</svg>
