<svg width="20" height="20" viewBox="0 0 20 20" fill="none" xmlns="http://www.w3.org/2000/svg">
<path d="M6.17999 2.5C5.95058 3.02566 5.83255 3.59314 5.83333 4.16667C5.83333 4.6087 6.00892 5.03262 6.32148 5.34518C6.63404 5.65774 7.05797 5.83334 7.49999 5.83334H12.5C12.942 5.83334 13.3659 5.65774 13.6785 5.34518C13.9911 5.03262 14.1667 4.6087 14.1667 4.16667C14.1667 3.57417 14.0433 3.01 13.82 2.5H15C15.442 2.5 15.8659 2.6756 16.1785 2.98816C16.4911 3.30072 16.6667 3.72464 16.6667 4.16667V16.6667C16.6667 17.1087 16.4911 17.5326 16.1785 17.8452C15.8659 18.1577 15.442 18.3333 15 18.3333H4.99999C4.55797 18.3333 4.13404 18.1577 3.82148 17.8452C3.50892 17.5326 3.33333 17.1087 3.33333 16.6667V4.16667C3.33333 3.72464 3.50892 3.30072 3.82148 2.98816C4.13404 2.6756 4.55797 2.5 4.99999 2.5H6.17999ZM9.99999 11.6667H7.49999C7.27898 11.6667 7.06702 11.7545 6.91074 11.9107C6.75446 12.067 6.66666 12.279 6.66666 12.5C6.66666 12.721 6.75446 12.933 6.91074 13.0893C7.06702 13.2455 7.27898 13.3333 7.49999 13.3333H9.99999C10.221 13.3333 10.433 13.2455 10.5893 13.0893C10.7455 12.933 10.8333 12.721 10.8333 12.5C10.8333 12.279 10.7455 12.067 10.5893 11.9107C10.433 11.7545 10.221 11.6667 9.99999 11.6667ZM12.5 8.33334H7.49999C7.2876 8.33357 7.0833 8.4149 6.92885 8.56071C6.77441 8.70652 6.68147 8.9058 6.66902 9.11783C6.65657 9.32987 6.72556 9.53865 6.86188 9.70153C6.99821 9.86441 7.19158 9.96908 7.4025 9.99417L7.49999 10H12.5C12.721 10 12.933 9.91221 13.0893 9.75593C13.2455 9.59965 13.3333 9.38768 13.3333 9.16667C13.3333 8.94566 13.2455 8.73369 13.0893 8.57741C12.933 8.42113 12.721 8.33334 12.5 8.33334ZM9.99999 1.66667C10.3518 1.66615 10.6997 1.74014 11.0209 1.88378C11.3421 2.02741 11.6292 2.23742 11.8633 2.5C12.22 2.89834 12.45 3.41084 12.4925 3.97667L12.5 4.16667H7.49999C7.49999 3.5625 7.71416 3.00834 8.07083 2.57667L8.13666 2.5C8.59499 1.98834 9.25999 1.66667 9.99999 1.66667Z" fill="white"/>
</svg>
