<svg width="20" height="20" viewBox="0 0 20 20" fill="none" xmlns="http://www.w3.org/2000/svg">
<path d="M6.24998 15.8333C6.5815 15.8333 6.89945 15.965 7.13387 16.1994C7.36829 16.4338 7.49998 16.7517 7.49998 17.0833C7.49998 17.4148 7.36829 17.7327 7.13387 17.9671C6.89945 18.2016 6.5815 18.3333 6.24998 18.3333C5.91846 18.3333 5.60052 18.2016 5.3661 17.9671C5.13168 17.7327 4.99998 17.4148 4.99998 17.0833C4.99998 16.7517 5.13168 16.4338 5.3661 16.1994C5.60052 15.965 5.91846 15.8333 6.24998 15.8333ZM14.5833 15.8333C14.9148 15.8333 15.2328 15.965 15.4672 16.1994C15.7016 16.4338 15.8333 16.7517 15.8333 17.0833C15.8333 17.4148 15.7016 17.7327 15.4672 17.9671C15.2328 18.2016 14.9148 18.3333 14.5833 18.3333C14.2518 18.3333 13.9339 18.2016 13.6994 17.9671C13.465 17.7327 13.3333 17.4148 13.3333 17.0833C13.3333 16.7517 13.465 16.4338 13.6994 16.1994C13.9339 15.965 14.2518 15.8333 14.5833 15.8333ZM2.49998 1.6666C3.93832 1.6666 5.01915 2.73576 5.12082 4.1666H16.5016C16.7458 4.16656 16.987 4.22017 17.2081 4.32363C17.4293 4.42709 17.625 4.57788 17.7815 4.76533C17.9379 4.95278 18.0513 5.17231 18.1135 5.4084C18.1757 5.6445 18.1854 5.89138 18.1417 6.1316L16.7775 13.6316C16.7076 14.0156 16.5052 14.3629 16.2055 14.613C15.9058 14.863 15.5278 15 15.1375 14.9999H5.77582C5.35427 14.9999 4.94837 14.8402 4.63989 14.5529C4.3314 14.2656 4.14325 13.8721 4.11332 13.4516L3.44665 4.10743C3.40832 3.5916 2.96998 3.33326 2.49998 3.33326C2.27897 3.33326 2.06701 3.24546 1.91073 3.08918C1.75445 2.9329 1.66665 2.72094 1.66665 2.49993C1.66665 2.27892 1.75445 2.06695 1.91073 1.91067C2.06701 1.75439 2.27897 1.6666 2.49998 1.6666Z" fill="white"/>
</svg>
