<svg width="20" height="20" viewBox="0 0 20 20" fill="none" xmlns="http://www.w3.org/2000/svg">
<path d="M10.8333 2.5C11.2538 2.49987 11.6588 2.65867 11.9671 2.94458C12.2754 3.23049 12.4643 3.62237 12.4958 4.04167L12.5 4.16667V17.5H7.5V4.16667C7.49987 3.74619 7.65867 3.34119 7.94458 3.03288C8.23049 2.72456 8.62237 2.5357 9.04167 2.50417L9.16667 2.5H10.8333ZM16.6667 6.66667C17.1087 6.66667 17.5326 6.84226 17.8452 7.15482C18.1577 7.46738 18.3333 7.89131 18.3333 8.33333V15.8333C18.3333 16.2754 18.1577 16.6993 17.8452 17.0118C17.5326 17.3244 17.1087 17.5 16.6667 17.5H14.1667V6.66667H16.6667ZM5.83333 9.16667V17.5H3.33333C2.89131 17.5 2.46738 17.3244 2.15482 17.0118C1.84226 16.6993 1.66667 16.2754 1.66667 15.8333V10.8333C1.66667 10.3913 1.84226 9.96738 2.15482 9.65482C2.46738 9.34226 2.89131 9.16667 3.33333 9.16667H5.83333Z" fill="white"/>
</svg>
