<svg width="20" height="20" viewBox="0 0 20 20" fill="none" xmlns="http://www.w3.org/2000/svg">
<path d="M15.7367 12.0578C15.8433 11.8742 16.0159 11.7381 16.2194 11.6775C16.4229 11.6168 16.6418 11.6361 16.8316 11.7314C17.0213 11.8266 17.1675 11.9908 17.2403 12.1902C17.3131 12.3896 17.3071 12.6094 17.2234 12.8045L17.1801 12.8912L16.9009 13.3745C17.0673 13.5699 17.2028 13.7897 17.3026 14.0262L17.3576 14.167H17.9167C18.1291 14.1672 18.3334 14.2486 18.4879 14.3944C18.6423 14.5402 18.7353 14.7395 18.7477 14.9515C18.7602 15.1635 18.6912 15.3723 18.5549 15.5352C18.4185 15.6981 18.2252 15.8027 18.0142 15.8278L17.9167 15.8337H17.3576C17.276 16.0648 17.1609 16.2827 17.0159 16.4803L16.9009 16.6253L17.1801 17.1095C17.2872 17.2936 17.3198 17.5118 17.271 17.7192C17.2223 17.9267 17.096 18.1075 16.918 18.2247C16.74 18.3418 16.524 18.3863 16.3142 18.3491C16.1044 18.3119 15.9169 18.1957 15.7901 18.0245L15.7367 17.9428L15.4576 17.4595C15.2134 17.5045 14.9659 17.512 14.7242 17.4845L14.5434 17.4578L14.2634 17.9428C14.1569 18.1265 13.9842 18.2625 13.7808 18.3232C13.5773 18.3839 13.3583 18.3646 13.1686 18.2693C12.9789 18.174 12.8327 18.0099 12.7598 17.8104C12.687 17.611 12.6931 17.3913 12.7767 17.1962L12.8201 17.1095L13.0992 16.6253C12.9331 16.4303 12.7977 16.2111 12.6976 15.9753L12.6426 15.8337H12.0834C11.871 15.8334 11.6667 15.7521 11.5123 15.6063C11.3578 15.4605 11.2649 15.2612 11.2524 15.0492C11.24 14.8371 11.309 14.6283 11.4453 14.4655C11.5816 14.3026 11.775 14.1979 11.9859 14.1728L12.0834 14.167H12.6434C12.725 13.9359 12.8401 13.718 12.9851 13.5203L13.0992 13.3753L12.8201 12.8912C12.7129 12.707 12.6804 12.4888 12.7291 12.2814C12.7779 12.074 12.9042 11.8931 13.0822 11.776C13.2601 11.6589 13.4762 11.6143 13.686 11.6515C13.8957 11.6888 14.0833 11.8049 14.2101 11.9762L14.2634 12.0578L14.5426 12.5412C14.7867 12.4962 15.0342 12.4887 15.2759 12.5162L15.4567 12.542L15.7367 12.0578ZM9.16675 10.8337C9.53925 10.8337 9.90591 10.8537 10.2634 10.892C10.4832 10.9153 10.6847 11.025 10.8237 11.1969C10.9626 11.3688 11.0276 11.5889 11.0042 11.8087C10.9809 12.0285 10.8713 12.23 10.6993 12.3689C10.5274 12.5079 10.3074 12.5728 10.0876 12.5495C9.78758 12.517 9.47925 12.5003 9.16675 12.5003C7.48091 12.5003 5.96425 12.992 4.88675 13.6495C4.34758 13.9778 3.94091 14.3345 3.67841 14.6678C3.40841 15.0095 3.33341 15.2678 3.33341 15.417C3.33341 15.5187 3.36425 15.6262 3.54591 15.772C3.75341 15.9387 4.11425 16.1112 4.66591 16.257C5.76425 16.5487 7.34258 16.667 9.16675 16.667L9.71508 16.6628C9.9361 16.6598 10.1492 16.7448 10.3076 16.8989C10.466 17.0531 10.5567 17.2639 10.5597 17.4849C10.5626 17.7059 10.4777 17.9191 10.3235 18.0775C10.1694 18.2358 9.9586 18.3265 9.73758 18.3295L9.16675 18.3337C7.30925 18.3337 5.55425 18.217 4.23925 17.8687C3.58508 17.6953 2.96925 17.447 2.50258 17.072C2.00841 16.6753 1.66675 16.1212 1.66675 15.417C1.66675 14.7612 1.96508 14.1478 2.37008 13.6345C2.78175 13.1137 3.35091 12.6345 4.01841 12.2262C5.35425 11.412 7.17091 10.8337 9.16675 10.8337ZM15.0001 14.167C14.7791 14.167 14.5671 14.2548 14.4108 14.4111C14.2545 14.5674 14.1667 14.7793 14.1667 15.0003C14.1667 15.2213 14.2545 15.4333 14.4108 15.5896C14.5671 15.7459 14.7791 15.8337 15.0001 15.8337C15.2211 15.8337 15.4331 15.7459 15.5893 15.5896C15.7456 15.4333 15.8334 15.2213 15.8334 15.0003C15.8334 14.7793 15.7456 14.5674 15.5893 14.4111C15.4331 14.2548 15.2211 14.167 15.0001 14.167ZM9.16675 1.66699C10.2718 1.66699 11.3316 2.10598 12.113 2.88738C12.8944 3.66878 13.3334 4.72859 13.3334 5.83366C13.3334 6.93873 12.8944 7.99854 12.113 8.77994C11.3316 9.56134 10.2718 10.0003 9.16675 10.0003C8.06168 10.0003 7.00187 9.56134 6.22047 8.77994C5.43907 7.99854 5.00008 6.93873 5.00008 5.83366C5.00008 4.72859 5.43907 3.66878 6.22047 2.88738C7.00187 2.10598 8.06168 1.66699 9.16675 1.66699ZM9.16675 3.33366C8.83844 3.33366 8.51335 3.39832 8.21004 3.52396C7.90673 3.6496 7.63113 3.83375 7.39898 4.06589C7.16683 4.29804 6.98269 4.57364 6.85705 4.87695C6.73141 5.18026 6.66675 5.50535 6.66675 5.83366C6.66675 6.16196 6.73141 6.48705 6.85705 6.79037C6.98269 7.09368 7.16683 7.36928 7.39898 7.60143C7.63113 7.83357 7.90673 8.01772 8.21004 8.14336C8.51335 8.26899 8.83844 8.33366 9.16675 8.33366C9.82979 8.33366 10.4657 8.07027 10.9345 7.60143C11.4034 7.13259 11.6667 6.4967 11.6667 5.83366C11.6667 5.17062 11.4034 4.53473 10.9345 4.06589C10.4657 3.59705 9.82979 3.33366 9.16675 3.33366Z" fill="#A6B1C2"/>
</svg>
