<svg width="20" height="20" viewBox="0 0 20 20" fill="none" xmlns="http://www.w3.org/2000/svg">
<path d="M14.9999 1.66699C15.4419 1.66699 15.8659 1.84259 16.1784 2.15515C16.491 2.46771 16.6666 2.89163 16.6666 3.33366V14.1587C16.6666 14.2987 16.6349 14.427 16.5724 14.552L16.1183 15.4603C16.0603 15.5761 16.0302 15.7038 16.0302 15.8332C16.0302 15.9627 16.0603 16.0904 16.1183 16.2062L16.5708 17.1128C16.6374 17.2398 16.6702 17.3819 16.666 17.5252C16.6617 17.6686 16.6204 17.8084 16.5463 17.9312C16.4721 18.054 16.3675 18.1555 16.2426 18.226C16.1177 18.2965 15.9767 18.3336 15.8333 18.3337H5.83325C5.17021 18.3337 4.53433 18.0703 4.06549 17.6014C3.59664 17.1326 3.33325 16.4967 3.33325 15.8337V4.16699C3.33325 3.50395 3.59664 2.86807 4.06549 2.39923C4.53433 1.93038 5.17021 1.66699 5.83325 1.66699H14.9999ZM14.5066 15.0003H5.83325C5.62085 15.0006 5.41656 15.0819 5.26211 15.2277C5.10766 15.3735 5.01472 15.5728 5.00228 15.7848C4.98983 15.9969 5.05881 16.2056 5.19514 16.3685C5.33146 16.5314 5.52484 16.6361 5.73575 16.6612L5.83325 16.667H14.5066C14.3377 16.1892 14.3179 15.6713 14.4499 15.182L14.5066 15.0003ZM14.9999 3.33366H5.83325C5.62914 3.33369 5.43214 3.40862 5.27961 3.54425C5.12708 3.67989 5.02963 3.86678 5.00575 4.06949L4.99992 4.16699V13.4753C5.20825 13.402 5.42992 13.3553 5.65909 13.3395L5.83325 13.3337H14.9999V3.33366ZM11.6666 5.83366C11.879 5.83389 12.0833 5.91523 12.2377 6.06103C12.3922 6.20684 12.4851 6.40612 12.4976 6.61815C12.51 6.83019 12.441 7.03898 12.3047 7.20185C12.1684 7.36473 11.975 7.46941 11.7641 7.49449L11.6666 7.50033H8.33325C8.12085 7.50009 7.91656 7.41876 7.76211 7.27295C7.60766 7.12714 7.51472 6.92787 7.50227 6.71583C7.48983 6.5038 7.55881 6.29501 7.69514 6.13213C7.83146 5.96925 8.02484 5.86458 8.23575 5.83949L8.33325 5.83366H11.6666Z" fill="#A6B1C2"/>
</svg>
