<svg width="20" height="20" viewBox="0 0 20 20" fill="none" xmlns="http://www.w3.org/2000/svg">
<path fill-rule="evenodd" clip-rule="evenodd" d="M7.50008 1.66699C7.05805 1.66699 6.63413 1.84259 6.32157 2.15515C6.00901 2.46771 5.83342 2.89163 5.83342 3.33366V5.00033H7.50008V3.33366H16.6667V12.5003H15.0001V14.167H16.6667C17.1088 14.167 17.5327 13.9914 17.8453 13.6788C18.1578 13.3663 18.3334 12.9424 18.3334 12.5003V3.33366C18.3334 2.89163 18.1578 2.46771 17.8453 2.15515C17.5327 1.84259 17.1088 1.66699 16.6667 1.66699H7.50008ZM3.33341 5.83366C2.89139 5.83366 2.46746 6.00925 2.1549 6.32181C1.84234 6.63438 1.66675 7.0583 1.66675 7.50033V16.667C1.66675 17.109 1.84234 17.5329 2.1549 17.8455C2.46746 18.1581 2.89139 18.3337 3.33341 18.3337H12.5001C12.9421 18.3337 13.366 18.1581 13.6786 17.8455C13.9912 17.5329 14.1667 17.109 14.1667 16.667V7.50033C14.1667 7.0583 13.9912 6.63438 13.6786 6.32181C13.366 6.00925 12.9421 5.83366 12.5001 5.83366H3.33341ZM3.33341 7.50033H12.5001V16.667H3.33341V7.50033Z" fill="#A6B1C2"/>
</svg>
