<svg width="20" height="20" viewBox="0 0 20 20" fill="none" xmlns="http://www.w3.org/2000/svg">
<path d="M14.9926 5.00784L4.49928 8.80201L7.99512 10.8253L11.0776 7.74201C11.234 7.58575 11.446 7.49801 11.6671 7.49809C11.8881 7.49817 12.1001 7.58606 12.2564 7.74242C12.4126 7.89879 12.5004 8.11083 12.5003 8.33188C12.5002 8.55294 12.4123 8.76492 12.2559 8.92117L9.17262 12.0045L11.1976 15.4995L14.9926 5.00784ZM15.2618 3.13784C16.2576 2.77701 17.2226 3.74201 16.8618 4.73784L12.4601 16.9087C12.0984 17.907 10.7351 18.0287 10.2026 17.1095L7.52178 12.4778L2.89012 9.79701C1.97095 9.26451 2.09178 7.90117 3.09095 7.53951L15.2618 3.13784Z" fill="#A6B1C2"/>
</svg>
