<svg width="20" height="20" viewBox="0 0 20 20" fill="none" xmlns="http://www.w3.org/2000/svg">
<path d="M16.5818 17.7273H3.4C2.71837 17.7059 2.0731 17.4148 1.60603 16.9179C1.13895 16.421 0.888273 15.7589 0.909091 15.0773V4.92273C0.894448 4.24189 1.15034 3.58303 1.62067 3.09054C2.09099 2.59806 2.73739 2.31214 3.41818 2.29545H16.6C17.2776 2.31685 17.9194 2.60484 18.3858 3.0968C18.8522 3.58877 19.1056 4.24496 19.0909 4.92273V15.0773C19.1012 15.4163 19.0443 15.754 18.9236 16.0709C18.8029 16.3879 18.6207 16.6779 18.3875 16.9241C18.1544 17.1704 17.8748 17.3682 17.5649 17.506C17.255 17.6438 16.9209 17.719 16.5818 17.7273ZM3.4 3.68182C3.08814 3.70284 2.79654 3.84382 2.58637 4.07517C2.3762 4.30653 2.26379 4.61029 2.27273 4.92273V15.0773C2.26228 15.2372 2.28373 15.3976 2.33584 15.5492C2.38795 15.7008 2.46968 15.8405 2.57626 15.9602C2.68285 16.0799 2.81217 16.1772 2.95671 16.2464C3.10124 16.3157 3.25811 16.3555 3.41818 16.3636H16.6C16.7585 16.3532 16.9134 16.3117 17.0558 16.2414C17.1983 16.1711 17.3255 16.0735 17.4302 15.954C17.5348 15.8346 17.615 15.6956 17.6659 15.5452C17.7169 15.3948 17.7378 15.2358 17.7273 15.0773V4.92273C17.7421 4.60347 17.63 4.29133 17.4153 4.05453C17.2007 3.81774 16.901 3.67557 16.5818 3.65909L3.4 3.68182Z" fill="#A6B1C2"/>
<path d="M8.45 14.7727C8.35605 14.7733 8.26301 14.7542 8.1769 14.7166C8.09078 14.679 8.01349 14.6238 7.95 14.5545C7.18883 13.744 6.25268 13.118 5.21289 12.7242C4.1731 12.3303 3.05712 12.179 1.95 12.2818L1.82273 10.9182C2.98192 10.8075 4.15153 10.9312 5.26195 11.2818C6.37238 11.6324 7.40092 12.2028 8.28637 12.9591C9.15679 11.6275 10.3462 10.5345 11.7466 9.77957C13.1469 9.02464 14.7137 8.63166 16.3046 8.63636C16.9011 8.63398 17.4964 8.69031 18.0818 8.80454L17.8182 10.1409C17.3195 10.0446 16.8125 9.99743 16.3046 10C14.8089 9.99273 13.3403 10.3995 12.0615 11.1753C10.7828 11.951 9.7436 13.0656 9.0591 14.3955C9.00986 14.494 8.93736 14.579 8.84785 14.6431C8.75835 14.7073 8.65456 14.7486 8.54546 14.7636C8.51423 14.7711 8.48209 14.7742 8.45 14.7727ZM6.36364 9.54545C5.91414 9.54545 5.47473 9.41216 5.10098 9.16243C4.72723 8.9127 4.43593 8.55775 4.26391 8.14246C4.0919 7.72718 4.04689 7.27021 4.13458 6.82934C4.22228 6.38847 4.43873 5.98351 4.75658 5.66567C5.07443 5.34782 5.47939 5.13136 5.92025 5.04367C6.36112 4.95598 6.81809 5.00098 7.23338 5.173C7.64866 5.34502 8.00361 5.63632 8.25334 6.01007C8.50307 6.38382 8.63637 6.82322 8.63637 7.27273C8.63637 7.57119 8.57758 7.86672 8.46337 8.14246C8.34915 8.4182 8.18174 8.66875 7.9707 8.87979C7.75966 9.09083 7.50912 9.25824 7.23338 9.37245C6.95764 9.48667 6.6621 9.54545 6.36364 9.54545ZM6.36364 6.36364C6.18384 6.36364 6.00808 6.41695 5.85858 6.51685C5.70908 6.61674 5.59256 6.75872 5.52375 6.92483C5.45494 7.09095 5.43694 7.27374 5.47202 7.45008C5.50709 7.62643 5.59368 7.78841 5.72082 7.91555C5.84795 8.04269 6.00994 8.12927 6.18629 8.16435C6.36263 8.19943 6.54542 8.18142 6.71153 8.11262C6.87765 8.04381 7.01963 7.92729 7.11952 7.77779C7.21941 7.62829 7.27273 7.45253 7.27273 7.27273C7.27273 7.03162 7.17695 6.80039 7.00646 6.6299C6.83598 6.45941 6.60475 6.36364 6.36364 6.36364Z" fill="#A6B1C2"/>
</svg>
