<svg width="20" height="20" viewBox="0 0 20 20" fill="none" xmlns="http://www.w3.org/2000/svg">
<path d="M9 2.20833C9.28849 1.99196 9.63938 1.875 10 1.875C10.3606 1.875 10.7115 1.99196 11 2.20833L16.8333 6.58333C17.0403 6.73858 17.2083 6.93988 17.324 7.17131C17.4398 7.40274 17.5 7.65792 17.5 7.91667V15.8333C17.5 16.2754 17.3244 16.6993 17.0118 17.0118C16.6993 17.3244 16.2754 17.5 15.8333 17.5H11.75C11.5069 17.5 11.2737 17.4034 11.1018 17.2315C10.9299 17.0596 10.8333 16.8264 10.8333 16.5833V11.6667C10.8333 11.4457 10.7455 11.2337 10.5893 11.0774C10.433 10.9211 10.221 10.8333 10 10.8333C9.77899 10.8333 9.56702 10.9211 9.41074 11.0774C9.25446 11.2337 9.16667 11.4457 9.16667 11.6667V16.5833C9.16667 16.7037 9.14296 16.8229 9.09689 16.9341C9.05082 17.0453 8.9833 17.1464 8.89818 17.2315C8.81306 17.3166 8.71201 17.3842 8.60079 17.4302C8.48958 17.4763 8.37038 17.5 8.25 17.5H4.16667C3.72464 17.5 3.30072 17.3244 2.98816 17.0118C2.67559 16.6993 2.5 16.2754 2.5 15.8333V7.91667C2.5 7.65792 2.56024 7.40274 2.67595 7.17131C2.79167 6.93988 2.95967 6.73858 3.16667 6.58333L9 2.20833ZM10 3.54167L4.16667 7.91667V15.8333H7.5V11.6667C7.5 11.0036 7.76339 10.3677 8.23223 9.8989C8.70107 9.43006 9.33696 9.16667 10 9.16667C10.663 9.16667 11.2989 9.43006 11.7678 9.8989C12.2366 10.3677 12.5 11.0036 12.5 11.6667V15.8333H15.8333V7.91667L10 3.54167Z" fill="#A6B1C2"/>
</svg>
