<svg width="20" height="20" viewBox="0 0 20 20" fill="none" xmlns="http://www.w3.org/2000/svg">
<path d="M9.99992 3.33366C9.55789 3.33366 9.13397 3.50925 8.82141 3.82181C8.50885 4.13437 8.33325 4.5583 8.33325 5.00033H11.6666C11.6666 4.5583 11.491 4.13437 11.1784 3.82181C10.8659 3.50925 10.4419 3.33366 9.99992 3.33366ZM7.79492 2.50033C8.38242 1.98199 9.15492 1.66699 9.99992 1.66699C10.8449 1.66699 11.6166 1.98199 12.2049 2.50033H14.9999C15.4419 2.50033 15.8659 2.67592 16.1784 2.98848C16.491 3.30104 16.6666 3.72496 16.6666 4.16699V16.667C16.6666 17.109 16.491 17.5329 16.1784 17.8455C15.8659 18.1581 15.4419 18.3337 14.9999 18.3337H4.99992C4.55789 18.3337 4.13397 18.1581 3.82141 17.8455C3.50885 17.5329 3.33325 17.109 3.33325 16.667V4.16699C3.33325 3.72496 3.50885 3.30104 3.82141 2.98848C4.13397 2.67592 4.55789 2.50033 4.99992 2.50033H7.79492ZM6.77159 4.16699H4.99992V16.667H14.9999V4.16699H13.2283C13.2966 4.43366 13.3333 4.71283 13.3333 5.00033V5.83366C13.3333 6.05467 13.2455 6.26663 13.0892 6.42291C12.9329 6.5792 12.7209 6.66699 12.4999 6.66699H7.49992C7.2789 6.66699 7.06694 6.5792 6.91066 6.42291C6.75438 6.26663 6.66659 6.05467 6.66659 5.83366V5.00033C6.66659 4.71283 6.70325 4.43366 6.77159 4.16699ZM6.66659 9.16699C6.66659 8.94598 6.75438 8.73402 6.91066 8.57774C7.06694 8.42146 7.2789 8.33366 7.49992 8.33366H12.4999C12.7209 8.33366 12.9329 8.42146 13.0892 8.57774C13.2455 8.73402 13.3333 8.94598 13.3333 9.16699C13.3333 9.38801 13.2455 9.59997 13.0892 9.75625C12.9329 9.91253 12.7209 10.0003 12.4999 10.0003H7.49992C7.2789 10.0003 7.06694 9.91253 6.91066 9.75625C6.75438 9.59997 6.66659 9.38801 6.66659 9.16699ZM6.66659 12.5003C6.66659 12.2793 6.75438 12.0674 6.91066 11.9111C7.06694 11.7548 7.2789 11.667 7.49992 11.667H9.99992C10.2209 11.667 10.4329 11.7548 10.5892 11.9111C10.7455 12.0674 10.8333 12.2793 10.8333 12.5003C10.8333 12.7213 10.7455 12.9333 10.5892 13.0896C10.4329 13.2459 10.2209 13.3337 9.99992 13.3337H7.49992C7.2789 13.3337 7.06694 13.2459 6.91066 13.0896C6.75438 12.9333 6.66659 12.7213 6.66659 12.5003Z" fill="#A6B1C2"/>
</svg>
