<svg width="20" height="20" viewBox="0 0 20 20" fill="none" xmlns="http://www.w3.org/2000/svg">
<path d="M6.25008 15.8337C6.5816 15.8337 6.89954 15.9654 7.13397 16.1998C7.36839 16.4342 7.50008 16.7521 7.50008 17.0837C7.50008 17.4152 7.36839 17.7331 7.13397 17.9675C6.89954 18.202 6.5816 18.3337 6.25008 18.3337C5.91856 18.3337 5.60062 18.202 5.3662 17.9675C5.13178 17.7331 5.00008 17.4152 5.00008 17.0837C5.00008 16.7521 5.13178 16.4342 5.3662 16.1998C5.60062 15.9654 5.91856 15.8337 6.25008 15.8337ZM14.5834 15.8337C14.9149 15.8337 15.2329 15.9654 15.4673 16.1998C15.7017 16.4342 15.8334 16.7521 15.8334 17.0837C15.8334 17.4152 15.7017 17.7331 15.4673 17.9675C15.2329 18.202 14.9149 18.3337 14.5834 18.3337C14.2519 18.3337 13.934 18.202 13.6995 17.9675C13.4651 17.7331 13.3334 17.4152 13.3334 17.0837C13.3334 16.7521 13.4651 16.4342 13.6995 16.1998C13.934 15.9654 14.2519 15.8337 14.5834 15.8337ZM2.61508 1.66699C3.2472 1.66707 3.85582 1.9066 4.31844 2.33736C4.78106 2.76813 5.06332 3.35815 5.10841 3.98866L5.12091 4.16699H16.5017C16.7459 4.16696 16.9871 4.22056 17.2082 4.32402C17.4294 4.42749 17.6251 4.57827 17.7816 4.76572C17.938 4.95317 18.0514 5.17271 18.1136 5.4088C18.1758 5.64489 18.1855 5.89178 18.1417 6.13199L16.7776 13.632C16.7077 14.016 16.5053 14.3633 16.2056 14.6134C15.9059 14.8634 15.5279 15.0004 15.1376 15.0003H5.77591C5.35436 15.0003 4.94847 14.8406 4.63999 14.5533C4.3315 14.266 4.14334 13.8725 4.11341 13.452L3.44675 4.10783C3.43177 3.89737 3.33751 3.70043 3.18301 3.55674C3.0285 3.41306 2.82524 3.33334 2.61425 3.33366H2.50008C2.27907 3.33366 2.06711 3.24586 1.91083 3.08958C1.75455 2.9333 1.66675 2.72134 1.66675 2.50033C1.66675 2.27931 1.75455 2.06735 1.91083 1.91107C2.06711 1.75479 2.27907 1.66699 2.50008 1.66699H2.61508ZM16.5017 5.83366H5.24008L5.77591 13.3337H15.1376L16.5017 5.83366Z" fill="#A6B1C2"/>
</svg>
