<svg width="20" height="20" viewBox="0 0 20 20" fill="none" xmlns="http://www.w3.org/2000/svg">
<path d="M11.6667 2.5C12.1088 2.5 12.5327 2.67559 12.8453 2.98816C13.1578 3.30072 13.3334 3.72464 13.3334 4.16667V6.66667H16.6667C17.1088 6.66667 17.5327 6.84226 17.8453 7.15482C18.1578 7.46738 18.3334 7.89131 18.3334 8.33333V15.8333C18.3334 16.2754 18.1578 16.6993 17.8453 17.0118C17.5327 17.3244 17.1088 17.5 16.6667 17.5H3.33341C2.89139 17.5 2.46746 17.3244 2.1549 17.0118C1.84234 16.6993 1.66675 16.2754 1.66675 15.8333V10.8333C1.66675 10.3913 1.84234 9.96738 2.1549 9.65482C2.46746 9.34226 2.89139 9.16667 3.33341 9.16667H6.66675V4.16667C6.66675 3.72464 6.84234 3.30072 7.1549 2.98816C7.46746 2.67559 7.89139 2.5 8.33342 2.5H11.6667ZM11.6667 4.16667H8.33342V15.8333H11.6667V4.16667ZM16.6667 8.33333H13.3334V15.8333H16.6667V8.33333ZM6.66675 10.8333H3.33341V15.8333H6.66675V10.8333Z" fill="#A6B1C2"/>
</svg>
