<svg width="20" height="20" viewBox="0 0 20 20" fill="none" xmlns="http://www.w3.org/2000/svg">
<path d="M10 10.8337C11.9967 10.8337 13.8125 11.412 15.1483 12.227C15.815 12.6337 16.385 13.1137 16.7967 13.6353C17.2017 14.1478 17.5 14.7612 17.5 15.417C17.5 16.1212 17.1575 16.6762 16.6642 17.072C16.1975 17.447 15.5817 17.6953 14.9275 17.8687C13.6125 18.2162 11.8575 18.3337 10 18.3337C8.1425 18.3337 6.3875 18.217 5.0725 17.8687C4.41833 17.6953 3.8025 17.447 3.33583 17.072C2.84167 16.6753 2.5 16.1212 2.5 15.417C2.5 14.7612 2.79833 14.1478 3.20333 13.6345C3.615 13.1137 4.18417 12.6345 4.85167 12.2262C6.1875 11.4128 8.00417 10.8337 10 10.8337ZM10 12.5003C8.31417 12.5003 6.7975 12.992 5.72 13.6495C5.18083 13.9778 4.77417 14.3345 4.51167 14.6678C4.24167 15.0095 4.16667 15.2678 4.16667 15.417C4.16667 15.5187 4.1975 15.6262 4.37917 15.772C4.58667 15.9387 4.9475 16.1112 5.49917 16.257C6.5975 16.5487 8.17583 16.667 10 16.667C11.825 16.667 13.4025 16.5478 14.5 16.257C15.0525 16.1112 15.4133 15.9387 15.6208 15.772C15.8025 15.6262 15.8333 15.5187 15.8333 15.417C15.8333 15.267 15.7583 15.0095 15.4892 14.6678C15.2258 14.3345 14.8192 13.9778 14.28 13.6495C13.2025 12.9912 11.6858 12.5003 10 12.5003ZM10 1.66699C11.1051 1.66699 12.1649 2.10598 12.9463 2.88738C13.7277 3.66878 14.1667 4.72859 14.1667 5.83366C14.1667 6.93873 13.7277 7.99854 12.9463 8.77994C12.1649 9.56134 11.1051 10.0003 10 10.0003C8.89493 10.0003 7.83512 9.56134 7.05372 8.77994C6.27232 7.99854 5.83333 6.93873 5.83333 5.83366C5.83333 4.72859 6.27232 3.66878 7.05372 2.88738C7.83512 2.10598 8.89493 1.66699 10 1.66699ZM10 3.33366C9.6717 3.33366 9.34661 3.39832 9.04329 3.52396C8.73998 3.6496 8.46438 3.83375 8.23223 4.06589C8.00009 4.29804 7.81594 4.57364 7.6903 4.87695C7.56466 5.18026 7.5 5.50535 7.5 5.83366C7.5 6.16196 7.56466 6.48705 7.6903 6.79037C7.81594 7.09368 8.00009 7.36928 8.23223 7.60143C8.46438 7.83357 8.73998 8.01772 9.04329 8.14336C9.34661 8.26899 9.6717 8.33366 10 8.33366C10.663 8.33366 11.2989 8.07027 11.7678 7.60143C12.2366 7.13259 12.5 6.4967 12.5 5.83366C12.5 5.17062 12.2366 4.53473 11.7678 4.06589C11.2989 3.59705 10.663 3.33366 10 3.33366Z" fill="#A6B1C2"/>
</svg>
