<svg xmlns="http://www.w3.org/2000/svg" width="60" height="60">
  <defs>
    <clipPath id="btn_like_nor_svg__a">
      <path d="M0 0h60v60H0z" />
    </clipPath>
  </defs>
  <g clip-path="url(#btn_like_nor_svg__a)">
    <g display="block">
      <g fill="none">
        <path stroke-miterlimit="10" stroke="currentColor" stroke-width="2"
          d="M24.315 38.004H35.63c.438 0 .831-.272.982-.684l3.142-8.487a2.137 2.137 0 00-2.005-2.88h-6.064a.094.094 0 01-.083-.14c.282-.508 1.277-2.263 1.537-3.105.422-1.366-.04-2.951-2.341-3.754a.094.094 0 00-.064 0 .068.068 0 00-.031.025l-2.093 2.97-2.738 3.886a.28.28 0 01-.231.118h-1.327a.082.082 0 00-.082.082v11.886c0 .046.037.083.083.083z" />
        <path
          d="M24.315 38.004H35.63c.438 0 .831-.272.982-.684l3.142-8.487a2.137 2.137 0 00-2.005-2.88h-6.064a.094.094 0 01-.083-.14c.282-.508 1.277-2.263 1.537-3.105.422-1.366-.04-2.951-2.341-3.754a.094.094 0 00-.064 0 .068.068 0 00-.031.025l-2.093 2.97-2.738 3.886a.28.28 0 01-.231.118h-1.327a.082.082 0 00-.082.082v11.886c0 .046.037.083.083.083z" />
      </g>
      <path fill="currentColor"
        d="M21.071 39.051h-1.004a.502.502 0 01-.502-.502v-13.05c0-.277.225-.502.502-.502h1.004c.277 0 .502.225.502.502v13.05a.502.502 0 01-.502.502z" />
    </g>

  </g>
</svg>
