<svg xmlns="http://www.w3.org/2000/svg" xmlns:xlink="http://www.w3.org/1999/xlink" fill="none" version="1.1" width="12"
  height="16" viewBox="0 0 12 16">
  <defs>
    <clipPath id="master_svg0_4_061">
      <rect x="0" y="0" width="12" height="16" rx="0" />
    </clipPath>
  </defs>
  <g clip-path="url(#master_svg0_4_061)">
    <g transform="matrix(1,0,0,-1,0,32.625)">
      <g>
        <path
          d="M6.75,16.6875Q7.59375,17.71875,8.8125,19.46875Q10.0312,21.1875,11,23.03125Q11.9375,24.875,12,26.28125Q11.9375,28.8437,10.25,30.5313Q8.5625,32.2187,6,32.2813Q3.4375,32.2187,1.75,30.5313Q0.0625,28.8437,0,26.28125Q0.0625,24.875,1,23.03125Q1.96875,21.1875,3.1875,19.46875Q4.40625,17.71875,5.25,16.6875Q5.5625,16.3125,6,16.3125Q6.4375,16.3125,6.75,16.6875ZM6,28.2813Q7.125,28.25,7.71875,27.2813Q8.28125,26.28125,7.71875,25.28125Q7.125,24.3125,6,24.28125Q4.875,24.3125,4.28125,25.28125Q3.71875,26.28125,4.28125,27.2813Q4.875,28.25,6,28.2813Z"
          fill="currentColor" fill-opacity="1" style="mix-blend-mode:passthrough" />
      </g>
    </g>
  </g>
</svg>
