<svg width="24" height="24" viewBox="0 0 24 24" fill="none" xmlns="http://www.w3.org/2000/svg">
<path d="M20 18C20.2652 18 20.5196 18.1054 20.7071 18.2929C20.8946 18.4804 21 18.7348 21 19C21 19.2652 20.8946 19.5196 20.7071 19.7071C20.5196 19.8946 20.2652 20 20 20H4C3.73478 20 3.48043 19.8946 3.29289 19.7071C3.10536 19.5196 3 19.2652 3 19C3 18.7348 3.10536 18.4804 3.29289 18.2929C3.48043 18.1054 3.73478 18 4 18H20ZM20 13C20.2549 13.0003 20.5 13.0979 20.6854 13.2728C20.8707 13.4478 20.9822 13.687 20.9972 13.9414C21.0121 14.1958 20.9293 14.4464 20.7657 14.6418C20.6021 14.8373 20.3701 14.9629 20.117 14.993L20 15H11C10.7451 14.9997 10.5 14.9021 10.3146 14.7272C10.1293 14.5522 10.0178 14.313 10.0028 14.0586C9.98789 13.8042 10.0707 13.5536 10.2343 13.3582C10.3979 13.1627 10.6299 13.0371 10.883 13.007L11 13H20ZM7.065 9.173C7.322 9.041 7.621 9.235 7.648 9.552L7.69 10.118L7.716 10.582L7.736 11.109L7.742 11.395L7.748 12.007L7.743 12.587L7.729 13.117L7.708 13.594L7.669 14.199L7.643 14.523C7.616 14.819 7.344 14.984 7.091 14.855L6.801 14.705L6.456 14.515L6.058 14.287L5.841 14.158L5.374 13.87L4.878 13.548L4.422 13.238L4.215 13.09L3.84 12.816L3.383 12.466C3.34219 12.4332 3.30152 12.4002 3.261 12.367C3.035 12.185 3.025 11.838 3.241 11.664L3.501 11.456L3.824 11.21L4.203 10.932L4.637 10.627C4.791 10.522 4.954 10.413 5.124 10.302L5.367 10.147L5.824 9.865L6.24 9.621L6.609 9.414L7.065 9.173ZM20 8C20.2652 8 20.5196 8.10536 20.7071 8.29289C20.8946 8.48043 21 8.73478 21 9C21 9.26522 20.8946 9.51957 20.7071 9.70711C20.5196 9.89464 20.2652 10 20 10H11C10.7348 10 10.4804 9.89464 10.2929 9.70711C10.1054 9.51957 10 9.26522 10 9C10 8.73478 10.1054 8.48043 10.2929 8.29289C10.4804 8.10536 10.7348 8 11 8H20ZM20 3C20.2652 3 20.5196 3.10536 20.7071 3.29289C20.8946 3.48043 21 3.73478 21 4C21 4.26522 20.8946 4.51957 20.7071 4.70711C20.5196 4.89464 20.2652 5 20 5H4C3.73478 5 3.48043 4.89464 3.29289 4.70711C3.10536 4.51957 3 4.26522 3 4C3 3.73478 3.10536 3.48043 3.29289 3.29289C3.48043 3.10536 3.73478 3 4 3H20Z" fill="#A6B1C2"/>
</svg>
