<svg width="24" height="24" viewBox="0 0 24 24" fill="none" xmlns="http://www.w3.org/2000/svg">
<path d="M19.9999 18C20.2548 18.0003 20.5 18.0979 20.6853 18.2728C20.8706 18.4478 20.9822 18.687 20.9971 18.9414C21.012 19.1958 20.9293 19.4464 20.7657 19.6418C20.6021 19.8373 20.37 19.9629 20.1169 19.993L19.9999 20H3.99994C3.74506 19.9997 3.49991 19.9021 3.31457 19.7272C3.12923 19.5522 3.0177 19.313 3.00277 19.0586C2.98783 18.8042 3.07061 18.5536 3.2342 18.3582C3.39779 18.1627 3.62984 18.0371 3.88294 18.007L3.99994 18H19.9999ZM19.9999 13C20.2652 13 20.5195 13.1054 20.707 13.2929C20.8946 13.4804 20.9999 13.7348 20.9999 14C20.9999 14.2652 20.8946 14.5196 20.707 14.7071C20.5195 14.8946 20.2652 15 19.9999 15H10.9999C10.7347 15 10.4804 14.8946 10.2928 14.7071C10.1053 14.5196 9.99994 14.2652 9.99994 14C9.99994 13.7348 10.1053 13.4804 10.2928 13.2929C10.4804 13.1054 10.7347 13 10.9999 13H19.9999ZM3.64294 9.173L3.93294 9.324L4.27694 9.513C4.33894 9.547 4.40294 9.583 4.46794 9.621L4.88394 9.865L5.10794 10.001L5.58294 10.303C5.83994 10.469 6.07694 10.63 6.29394 10.783L6.70094 11.074L6.88394 11.21L7.20594 11.456L7.46794 11.664C7.68194 11.838 7.67294 12.185 7.44794 12.367L7.18694 12.573L6.86794 12.816L6.49294 13.09L6.28494 13.237L5.82994 13.548L5.58194 13.711C5.41394 13.821 5.25094 13.923 5.09494 14.019L4.64994 14.287L4.25194 14.515L3.90594 14.705L3.61594 14.855C3.36294 14.985 3.09094 14.819 3.06494 14.523L3.02494 14.013L2.98894 13.363L2.97094 12.859L2.96094 12.303V11.694L2.97194 11.109L2.99194 10.582L3.01694 10.118L3.05994 9.552C3.08694 9.235 3.38494 9.042 3.64294 9.172V9.173ZM19.9999 8C20.2652 8 20.5195 8.10536 20.707 8.29289C20.8946 8.48043 20.9999 8.73478 20.9999 9C20.9999 9.26522 20.8946 9.51957 20.707 9.70711C20.5195 9.89464 20.2652 10 19.9999 10H10.9999C10.7347 10 10.4804 9.89464 10.2928 9.70711C10.1053 9.51957 9.99994 9.26522 9.99994 9C9.99994 8.73478 10.1053 8.48043 10.2928 8.29289C10.4804 8.10536 10.7347 8 10.9999 8H19.9999ZM19.9999 3C20.2652 3 20.5195 3.10536 20.707 3.29289C20.8946 3.48043 20.9999 3.73478 20.9999 4C20.9999 4.26522 20.8946 4.51957 20.707 4.70711C20.5195 4.89464 20.2652 5 19.9999 5H3.99994C3.73472 5 3.48037 4.89464 3.29283 4.70711C3.10529 4.51957 2.99994 4.26522 2.99994 4C2.99994 3.73478 3.10529 3.48043 3.29283 3.29289C3.48037 3.10536 3.73472 3 3.99994 3H19.9999Z" fill="#A6B1C2"/>
</svg>
