<svg t="1744039148515" class="icon" viewBox="0 0 1121 1024" version="1.1" xmlns="http://www.w3.org/2000/svg" p-id="19167" width="32" height="32"><path d="M1121.292162 552.133017c-19.458432 9.729216-43.781473 4.864608-58.375297-12.161521-9.729216-12.16152-21.890736-21.890736-36.484561-29.187648-19.458432-9.729216-41.349169-17.026128-63.239905-24.32304-24.32304-9.729216-46.213777-4.864608-68.104513 9.729216-9.729216 7.296912-19.458432 9.729216-29.187648 9.729216-43.781473-2.432304-82.698337-26.755344-92.427554-80.266033-7.296912-41.349169-21.890736-77.833729-53.510689-107.021378-41.349169-41.349169-119.182898-41.349169-160.532066-2.432304-29.187648 26.755344-41.349169 60.807601-41.349169 99.724465-2.432304 41.349169 12.16152 80.266033 24.32304 116.750594 12.16152 34.052257 24.32304 68.104513 36.484561 99.724466 12.16152 36.484561 7.296912 68.104513-12.16152 99.724465-21.890736 34.052257-60.807601 43.781473-97.292162 26.755345-34.052257-17.026128-46.213777-48.646081-31.619952-89.99525 7.296912-21.890736 17.026128-41.349169 29.187648-63.239905 17.026128-31.619952 34.052257-65.672209 41.349169-99.724465 14.593824-68.104513 2.432304-131.344418-26.755344-192.152019-36.484561-75.401425-92.427553-121.615202-177.558195-126.47981-38.916865-4.864608-75.401425 7.296912-102.15677 38.916865-48.646081 58.375297-31.619952 143.505938 38.916865 179.990498 14.593824 7.296912 29.187648 12.16152 43.781472 19.458433 12.16152 4.864608 24.32304 12.16152 36.484561 19.458432 19.458432 17.026128 24.32304 48.646081 14.593824 70.536817-12.16152 26.755344-31.619952 38.916865-60.807601 38.916865-26.755344 0-48.646081-17.026128-58.375297-43.781473-4.864608-17.026128-9.729216-34.052257-17.026128-48.646081-12.16152-34.052257-31.619952-60.807601-63.239905-75.401425-43.781473-21.890736-87.562945-17.026128-116.750594 12.16152-12.16152 9.729216-19.458432 21.890736-19.458432 36.484561l7.296912-7.296912c34.052257-46.213777 104.589074-48.646081 143.505938-4.864608 14.593824 17.026128 19.458432 36.484561 24.323041 58.375297 4.864608 21.890736 7.296912 43.781473 19.458432 63.239905 26.755344 43.781473 70.536817 58.375297 111.885986 46.213776 63.239905-19.458432 97.292162-92.427553 70.536817-153.235154-14.593824-36.484561-43.781473-58.375297-77.833729-72.969121-14.593824-7.296912-29.187648-17.026128-43.781473-26.755345-19.458432-14.593824-21.890736-38.916865-9.729216-60.807601 9.729216-19.458432 24.32304-26.755344 48.646081-24.32304 4.864608 0 12.16152 2.432304 17.026128 2.432304 53.510689 21.890736 87.562945 60.807601 104.589073 114.31829 21.890736 75.401425 2.432304 141.073634-41.349168 201.881235-21.890736 31.619952-41.349169 65.672209-43.781473 107.021378-2.432304 51.078385 12.16152 97.292162 48.646081 133.776722 65.672209 68.104513 162.964371 68.104513 231.068884 4.864608 63.239905-55.942993 82.698337-126.47981 55.942992-206.745843-17.026128-48.646081-34.052257-94.859857-53.510688-143.505939-7.296912-21.890736-12.16152-43.781473-2.432304-65.672209 7.296912-19.458432 26.755344-38.916865 51.078384-21.890736 7.296912 4.864608 14.593824 12.16152 19.458433 21.890736 7.296912 17.026128 14.593824 34.052257 19.458432 51.078385 12.16152 36.484561 26.755344 70.536817 58.375297 94.859858 31.619952 24.32304 65.672209 31.619952 104.589073 34.052256 17.026128 0 31.619952 4.864608 46.213777 17.026128 12.16152 9.729216 26.755344 14.593824 41.349169 7.296912 41.349169-14.593824 80.266033-26.755344 119.182898-48.64608 31.619952 21.890736 31.619952 21.890736 43.781472 9.729216-17.026128 4.864608-19.458432 2.432304-26.755344-7.296912 21.890736 7.296912 29.187648 4.864608 34.052257-7.296912z" fill="#12161e" p-id="19168"></path></svg>
